<svg xmlns="http://www.w3.org/2000/svg" xmlns:xlink="http://www.w3.org/1999/xlink" width="1200" height="1200" version="1.1"><g transform="scale(11.24961109313762) translate(4.335655311743422, 3.33451787630717)">            <linearGradient id="SvgjsLinearGradient2504"><stop id="SvgjsStop2505" stop-color="#006838" offset="0"/><stop id="SvgjsStop2506" stop-color="#96cf24" offset="1"/></linearGradient><linearGradient id="SvgjsLinearGradient2507"><stop id="SvgjsStop2508" stop-color="#006838" offset="0"/><stop id="SvgjsStop2509" stop-color="#96cf24" offset="1"/></linearGradient>            <g fill="url(#SvgjsLinearGradient2504)"><linearGradient id="SvgjsLinearGradient2504"><stop id="SvgjsStop2505" stop-color="#006838" offset="0"/><stop id="SvgjsStop2506" stop-color="#96cf24" offset="1"/></linearGradient><linearGradient id="SvgjsLinearGradient2507"><stop id="SvgjsStop2508" stop-color="#006838" offset="0"/><stop id="SvgjsStop2509" stop-color="#96cf24" offset="1"/></linearGradient><g xmlns="http://www.w3.org/2000/svg"><path fill="url(#SvgjsLinearGradient2504)" d="M96.884,38.492c-0.375-1.129-1.517-1.731-2.555-1.35l-28.035-3.764L50.675,4.082   c0-1.152-0.924-2.083-2.056-2.083s-2.056,0.931-2.056,2.083l-15.67,29.404L3.672,37.143c-1.038-0.382-2.184,0.221-2.559,1.35   c-0.364,1.121,0.171,2.333,1.206,2.715l21.596,23.174l-5.478,30.208c-0.663,0.921-0.476,2.239,0.429,2.963   c0.9,0.72,2.18,0.556,2.839-0.358l26.91-13.905l26.91,13.905c0.66,0.914,1.929,1.078,2.829,0.358   c0.911-0.724,1.102-2.042,0.438-2.963l-5.36-29.509l22.249-23.873C96.717,40.825,97.252,39.613,96.884,38.492z"/></g></g>        </g></svg>